# File created by Blade
# Date/Time:  Fri Jan 16 19:00:32 2015
#---------------------------------------------------------
:version 1.10
:name HOM
:units
  mass 1.0
  length 1.000000
  angle deg
:documentation
     Acclaim Skeleton File
:root
   axis xyz
   order TX TY TZ RX RY RZ
   position 0.000000 0.000000 0.000000
   orientation 0 0 0
:bonedata
   begin
      id 1
      name Spine_dum
      direction 0.000000 1.000000 0.000000
      length 7.067664
      axis 0.0 0.0 0.0 xyz
   end
   begin
      id 2
      name LeftUpLeg_dum
      direction 1.000000 0.000000 0.000000
      length 4.013002
      axis 0.0 0.0 0.0 xyz
   end
   begin
      id 3
      name RightUpLeg_dum
      direction -1.000000 0.000000 0.000000
      length 4.013002
      axis 0.0 0.0 0.0 xyz
   end
   begin
      id 4
      name Spine
      direction 0.000000 1.000000 0.000000
      length 0.000000
      axis 0.0 0.0 0.0 xyz
      dof rx ry rz
   end
   begin
      id 5
      name Spine_dum1
      direction 0.000000 1.000000 0.000000
      length 15.039886
      axis 0.0 0.0 0.0 xyz
   end
   begin
      id 6
      name Spine_dum2
      direction 0.000000 1.000000 0.000000
      length 10.530368
      axis 0.0 0.0 0.0 xyz
   end
   begin
      id 7
      name Spine_dum3
      direction 0.000000 1.000000 0.000000
      length 10.530368
      axis 0.0 0.0 0.0 xyz
   end
   begin
      id 8
      name Head
      direction 0.000000 1.000000 0.000000
      length 4.527550
      axis 0.0 0.0 0.0 xyz
      dof rx ry rz
   end
   begin
      id 9
      name LeftShoulder
      direction 1.000000 0.000000 0.000000
      length 7.028855
      axis 0.0 0.0 -90.0 xyz
      dof rx ry rz
   end
   begin
      id 10
      name LeftArm
      direction 1.000000 0.000000 0.000000
      length 10.797705
      axis 0.0 0.0 -90.0 xyz
      dof rx ry rz
   end
   begin
      id 11
      name LeftForeArm
      direction 1.000000 0.000000 0.000000
      length 7.907442
      axis 0.0 0.0 -90.0 xyz
      dof ry rz rx
   end
   begin
      id 12
      name LeftHand
      direction 0.000000 0.000000 0.000000
      length 0.000000
      axis 0.0 0.0 -90.0 xyz
      dof rx ry rz
   end
   begin
      id 13
      name LeftHand_dum1
      direction 0.000000 0.000000 0.000000
      length 0.000000
      axis 0.0 0.0 -90.0 xyz
   end
   begin
      id 14
      name LeftHand_dum2
      direction 1.000000 0.000000 0.000000
      length 3.937000
      axis 0.0 0.0 -90.0 xyz
   end
   begin
      id 15
      name LeftHandThumb1
      direction 0.000000 0.000000 1.000000
      length 3.937000
      axis 0.0 0.0 -90.0 xyz
      dof rx rz ry
   end
   begin
      id 16
      name RightShoulder
      direction -1.000000 0.000000 0.000000
      length 7.028855
      axis 0.0 0.0 90.0 xyz
      dof rx ry rz
   end
   begin
      id 17
      name RightArm
      direction -1.000000 0.000000 0.000000
      length 10.797705
      axis 0.0 0.0 90.0 xyz
      dof rx ry rz
   end
   begin
      id 18
      name RightForeArm
      direction -1.000000 0.000000 0.000000
      length 7.907442
      axis 0.0 0.0 90.0 xyz
      dof ry rz rx
   end
   begin
      id 19
      name RightHand
      direction 0.000000 0.000000 0.000000
      length 0.000000
      axis 0.0 0.0 90.0 xyz
      dof rx ry rz
   end
   begin
      id 20
      name RightHand_dum1
      direction 0.000000 0.000000 0.000000
      length 0.000000
      axis 0.0 0.0 90.0 xyz
   end
   begin
      id 21
      name RightHand_dum2
      direction -1.000000 0.000000 0.000000
      length 3.937000
      axis 0.0 0.0 90.0 xyz
   end
   begin
      id 22
      name RightHandThumb1
      direction 0.000000 0.000000 1.000000
      length 3.937000
      axis 0.0 0.0 90.0 xyz
      dof rx rz ry
   end
   begin
      id 23
      name LeftUpLeg
      direction 0.000000 -1.000000 0.000000
      length 16.899758
      axis 0.0 0.0 0.0 xyz
      dof rx ry rz
   end
   begin
      id 24
      name LeftLeg
      direction 0.000000 -1.000000 0.000000
      length 17.389183
      axis 0.0 0.0 0.0 xyz
      dof rx ry rz
   end
   begin
      id 25
      name LeftFoot
      direction 0.000000 -0.258819 0.965926
      length 4.924528
      axis 15.0 0.0 0.0 xyz
      dof rx ry rz
   end
   begin
      id 26
      name LeftToeBase
      direction 0.000000 0.000000 1.000000
      length 2.952750
      axis 0.0 0.0 0.0 xyz
      dof rx ry rz
   end
   begin
      id 27
      name RightUpLeg
      direction 0.000000 -1.000000 0.000000
      length 16.899758
      axis 0.0 0.0 0.0 xyz
      dof rx ry rz
   end
   begin
      id 28
      name RightLeg
      direction 0.000000 -1.000000 0.000000
      length 17.389183
      axis 0.0 0.0 0.0 xyz
      dof rx ry rz
   end
   begin
      id 29
      name RightFoot
      direction 0.000000 -0.258819 0.965926
      length 4.924528
      axis 15.0 0.0 0.0 xyz
      dof rx ry rz
   end
   begin
      id 30
      name RightToeBase
      direction 0.000000 0.000000 1.000000
      length 2.952750
      axis 0.0 0.0 0.0 xyz
      dof rx ry rz
   end
:hierarchy
   begin
      root Spine_dum LeftUpLeg_dum RightUpLeg_dum
      Spine_dum Spine
      LeftUpLeg_dum LeftUpLeg
      RightUpLeg_dum RightUpLeg
      Spine Spine_dum1 Spine_dum2 Spine_dum3
      Spine_dum1 Head
      Spine_dum2 LeftShoulder
      Spine_dum3 RightShoulder
      LeftShoulder LeftArm
      LeftArm LeftForeArm
      LeftForeArm LeftHand
      LeftHand LeftHand_dum1 LeftHand_dum2
      LeftHand_dum1 LeftHandThumb1
      RightShoulder RightArm
      RightArm RightForeArm
      RightForeArm RightHand
      RightHand RightHand_dum1 RightHand_dum2
      RightHand_dum1 RightHandThumb1
      LeftUpLeg LeftLeg
      LeftLeg LeftFoot
      LeftFoot LeftToeBase
      RightUpLeg RightLeg
      RightLeg RightFoot
      RightFoot RightToeBase
   end

# File created by Blade
# Date/Time:  Fri Jan 16 19:00:24 2015
# Frame Rate: 120.000 fps
#------------------------------------------------------
:FULLY-SPECIFIED
:DEGREES
390
root 15.212375 35.933209 -21.928829 -185.764348 -0.388529 -169.858374
Spine 3.050156 0.057884 10.627549
Head 5.321679 -2.623545 0.159164
LeftShoulder -9.606945 -18.778801 -6.736662
LeftArm -14.831554 7.070166 -68.391299
LeftForeArm 0.150247 0.000000 9.520040
LeftHand -1.832540 -0.000000 1.263004
LeftHandThumb1 -26.253704 0.000000 33.147579
RightShoulder -7.741084 -16.495026 8.313875
RightArm 5.836380 16.110977 65.760906
RightForeArm -25.429734 -0.000000 44.382422
RightHand -5.034839 0.000000 -1.124874
RightHandThumb1 -24.326973 -0.000000 -32.862282
LeftUpLeg 10.392755 13.996747 -0.796837
LeftLeg -4.381196 -0.000000 0.000000
LeftFoot -18.577472 20.705411 -7.855571
LeftToeBase 25.442229 -0.000000 -0.000000
RightUpLeg -80.793757 -41.588077 12.432064
RightLeg 109.388102 -0.000000 -0.000000
RightFoot 23.185945 -41.654167 -10.556063
RightToeBase 27.531701 -0.000000 -0.000000
391
root 15.190243 35.926311 -21.945604 -185.626606 -0.211925 -169.825458
Spine 2.909514 0.220939 10.725889
Head 5.351135 -2.588485 0.057407
LeftShoulder -9.632016 -18.763306 -6.751319
LeftArm -14.956853 7.026276 -68.403658
LeftForeArm 0.108160 -0.000000 9.360575
LeftHand -1.776470 -0.000000 1.111041
LeftHandThumb1 -26.253704 0.000000 33.147579
RightShoulder -7.714351 -16.510281 8.252644
RightArm 5.865948 15.926156 65.751515
RightForeArm -25.460307 -0.000000 43.401753
RightHand -4.853623 -0.000000 -0.682069
RightHandThumb1 -24.326973 -0.000000 -32.862282
LeftUpLeg 10.348099 14.008607 -0.840556
LeftLeg -4.493531 -0.000000 0.000000
LeftFoot -18.621447 20.879739 -7.897313
LeftToeBase 25.382529 -0.000000 -0.000000
RightUpLeg -80.711685 -42.141085 12.213930
RightLeg 109.407475 -0.000000 -0.000000
RightFoot 23.256278 -41.765426 -10.536506
RightToeBase 27.104699 -0.000000 -0.000000
392
root 15.173132 35.921058 -21.961626 -185.463411 -0.009083 -169.749407
Spine 2.736952 0.423112 10.881802
Head 5.432847 -2.563407 -0.082328
LeftShoulder -9.654389 -18.742069 -6.789854
LeftArm -15.098439 6.951145 -68.393784
LeftForeArm 0.070899 0.000000 9.249049
LeftHand -1.746583 0.000000 0.908324
LeftHandThumb1 -26.253704 0.000000 33.147579
RightShoulder -7.719575 -16.538767 8.205343
RightArm 5.897456 15.693491 65.745519
RightForeArm -25.521160 -0.000000 42.418973
RightHand -4.728437 0.000000 -0.452307
RightHandThumb1 -24.326973 -0.000000 -32.862282
LeftUpLeg 10.274201 14.069826 -0.827818
LeftLeg -4.586022 -0.000000 0.000000
LeftFoot -18.669910 21.025276 -7.873385
LeftToeBase 25.328174 -0.000000 -0.000000
RightUpLeg -80.653067 -42.638471 12.062440
RightLeg 109.419746 -0.000000 -0.000000
RightFoot 23.205024 -41.962171 -10.368811
RightToeBase 26.790488 -0.000000 -0.000000
393
root 15.151237 35.916076 -21.980727 -185.319205 0.223183 -169.688381
Spine 2.587838 0.627119 11.044574
Head 5.497133 -2.486792 -0.249362
LeftShoulder -9.697171 -18.731154 -6.856381
LeftArm -15.269158 6.844685 -68.368808
LeftForeArm 0.074789 -0.000000 9.208160
LeftHand -1.843542 -0.000000 0.817020
LeftHandThumb1 -26.253704 0.000000 33.147579
RightShoulder -7.736380 -16.587108 8.147751
RightArm 5.993371 15.371149 65.768812
RightForeArm -25.774488 -0.000000 41.298657
RightHand -4.566967 0.000000 -0.499998
RightHandThumb1 -24.326973 -0.000000 -32.862282
LeftUpLeg 10.217113 14.241874 -0.814873
LeftLeg -4.653140 -0.000000 0.000000
LeftFoot -18.749010 21.062551 -7.908032
LeftToeBase 25.093532 -0.000000 -0.000000
RightUpLeg -80.556286 -43.116585 11.869634
RightLeg 109.440984 -0.000000 -0.000000
RightFoot 23.309062 -42.001272 -10.486295
RightToeBase 26.312716 -0.000000 -0.000000
394
root 15.131566 35.911768 -21.998975 -185.197949 0.453332 -169.655326
Spine 2.479542 0.818238 11.154696
Head 5.515770 -2.403325 -0.372081
LeftShoulder -9.754851 -18.716540 -6.924712
LeftArm -15.415573 6.767961 -68.328274
LeftForeArm 0.047325 -0.000000 9.198699
LeftHand -1.809858 -0.000000 0.739026
LeftHandThumb1 -26.253704 0.000000 33.147579
RightShoulder -7.728727 -16.603517 8.132338
RightArm 6.030202 15.193971 65.778227
RightForeArm -25.775573 -0.000000 40.329942
RightHand -4.593100 -0.000000 -0.093267
RightHandThumb1 -24.326973 -0.000000 -32.862282
LeftUpLeg 10.200335 14.292652 -0.836487
LeftLeg -4.755644 -0.000000 0.000000
LeftFoot -18.806187 21.229317 -7.969703
LeftToeBase 25.332780 -0.000000 -0.000000
RightUpLeg -80.503545 -43.615090 11.723331
RightLeg 109.454153 -0.000000 -0.000000
RightFoot 23.199994 -42.319497 -10.401105
RightToeBase 26.373194 -0.000000 -0.000000
395
root 15.115232 35.910226 -22.019003 -185.077803 0.660999 -169.593392
Spine 2.367319 0.997634 11.287041
Head 5.536898 -2.369398 -0.506912
LeftShoulder -9.849399 -18.647135 -7.000822
LeftArm -15.464050 6.653537 -68.265998
LeftForeArm 0.091546 0.000000 9.166229
LeftHand -1.809977 -0.000000 0.745489
LeftHandThumb1 -26.253704 0.000000 33.147579
RightShoulder -7.732796 -16.611644 8.155087
RightArm 6.036902 14.986333 65.749389
RightForeArm -25.771836 -0.000000 39.311319
RightHand -4.425104 0.000000 0.193491
RightHandThumb1 -24.326973 -0.000000 -32.862282
LeftUpLeg 10.169490 14.486529 -0.793748
LeftLeg -4.814526 -0.000000 0.000000
LeftFoot -18.876701 21.189637 -8.007215
LeftToeBase 25.480973 -0.000000 -0.000000
RightUpLeg -80.381217 -44.105067 11.506461
RightLeg 109.502558 -0.000000 -0.000000
RightFoot 23.269140 -42.388772 -10.462621
RightToeBase 26.132585 -0.000000 -0.000000
396
root 15.097247 35.907716 -22.041752 -184.979681 0.852358 -169.559889
Spine 2.279738 1.156385 11.390582
Head 5.570673 -2.258827 -0.644091
LeftShoulder -9.916307 -18.648315 -7.074011
LeftArm -15.613038 6.577409 -68.214471
LeftForeArm 0.060413 -0.000000 9.160383
LeftHand -1.792916 -0.000000 0.700110
LeftHandThumb1 -26.253704 0.000000 33.147579
RightShoulder -7.728987 -16.603876 8.169816
RightArm 5.991827 14.783884 65.753303
RightForeArm -25.759090 -0.000000 38.346211
RightHand -4.408897 -0.000000 0.387892
RightHandThumb1 -24.326973 -0.000000 -32.862282
LeftUpLeg 10.180852 14.658475 -0.774750
LeftLeg -4.901606 -0.000000 0.000000
LeftFoot -18.925921 21.120623 -8.048380
LeftToeBase 25.610325 -0.000000 -0.000000
RightUpLeg -80.259352 -44.644990 11.277292
RightLeg 109.578000 -0.000000 -0.000000
RightFoot 23.155681 -42.479786 -10.451201
RightToeBase 25.952042 -0.000000 -0.000000
